<svg width="21" height="17" viewBox="0 0 21 17" fill="none" xmlns="http://www.w3.org/2000/svg">
<path d="M7.01562 10.5H8.01562V3.5H7.01562C6.46344 3.5 6.01562 3.94781 6.01562 4.5V9.5C6.01562 10.0522 6.46344 10.5 7.01562 10.5ZM18.0156 9.5V4.5C18.0156 3.94781 17.5678 3.5 17.0156 3.5H16.0156V10.5H17.0156C17.5678 10.5 18.0156 10.0522 18.0156 9.5ZM19.5156 12.5H4.01562V1C4.01562 0.72375 3.79188 0.5 3.51562 0.5H0.515625C0.239375 0.5 0.015625 0.72375 0.015625 1V2C0.015625 2.27625 0.239375 2.5 0.515625 2.5H2.01562V14C2.01562 14.2763 2.23937 14.5 2.51562 14.5H5.1075C5.05156 14.6572 5.01562 14.8238 5.01562 15C5.01562 15.8284 5.68719 16.5 6.51562 16.5C7.34406 16.5 8.01562 15.8284 8.01562 15C8.01562 14.8238 7.97969 14.6572 7.92375 14.5H14.1075C14.0516 14.6572 14.0156 14.8238 14.0156 15C14.0156 15.8284 14.6872 16.5 15.5156 16.5C16.3441 16.5 17.0156 15.8284 17.0156 15C17.0156 14.8238 16.9797 14.6572 16.9237 14.5H19.5156C19.7919 14.5 20.0156 14.2763 20.0156 14V13C20.0156 12.7237 19.7919 12.5 19.5156 12.5ZM15.0156 3.5V2C15.0156 1.17156 14.3441 0.5 13.5156 0.5H10.5156C9.68719 0.5 9.01562 1.17156 9.01562 2V10.5H15.0156V3.5ZM13.5156 3.5H10.5156V2H13.5156V3.5Z" fill="white"/>
</svg>
